<svg xmlns="http://www.w3.org/2000/svg" viewBox="0 0 32 32"><path fill="#25D366" d="M16.04 2.9C8.82 2.9 2.96 8.76 2.96 15.98c0 2.31.61 4.57 1.76 6.56L2.85 29.4l7.01-1.84a13.04 13.04 0 0 0 6.18 1.57h.01c7.21 0 13.08-5.86 13.08-13.08S23.26 2.9 16.04 2.9z"/><path fill="#fff" d="M23.65 19.5c-.42-.21-2.48-1.22-2.86-1.36-.38-.14-.66-.21-.94.21-.28.42-1.08 1.36-1.32 1.64-.24.28-.49.31-.9.1-.42-.21-1.76-.65-3.35-2.07-1.24-1.11-2.08-2.48-2.32-2.9-.24-.42-.03-.65.18-.86.19-.19.42-.49.63-.73.21-.24.28-.42.42-.7.14-.28.07-.52-.03-.73-.1-.21-.94-2.27-1.29-3.11-.34-.82-.69-.71-.94-.72h-.8c-.28 0-.73.1-1.11.52-.38.42-1.46 1.43-1.46 3.49s1.5 4.05 1.71 4.33c.21.28 2.95 4.5 7.14 6.31 1 .43 1.78.69 2.38.88 1 .32 1.91.27 2.63.16.8-.12 2.48-1.01 2.83-1.99.35-.98.35-1.82.24-1.99-.1-.18-.38-.28-.8-.49z"/></svg>
